<svg xmlns="http://www.w3.org/2000/svg" width="1080" height="1080"><defs><clipPath id="a"><path d="M0 0h1080v1080H0z"/></clipPath></defs><g clip-path="url(#a)"><g fill="#fff" stroke="#707070"><rect width="1080" height="1080" rx="199" stroke="none"/><rect x=".5" y=".5" width="1079" height="1079" rx="198.5" fill="none"/></g><g transform="translate(-14.328 -58.336)"><g transform="rotate(12.04 -1763.16 1988.17)" fill="#040000" stroke="#707070"><rect width="675" height="495" rx="40" stroke="none"/><rect x=".5" y=".5" width="674" height="494" rx="39.5" fill="none"/></g><g fill="#fff"><path d="M897.926 981.03 326.774 859.56l84.032-395.112 571.152 121.472-84.032 395.112z"/><path d="m411.19 465.04-83.823 394.134L897.54 980.438l83.824-394.134L411.19 465.04m-.77-1.186 572.13 121.68-84.24 396.09-572.13-121.68 84.24-396.09z" fill="#707070"/></g><path d="M532.712 857.357a21.925 21.925 0 0 1-13.874-9.538 21.925 21.925 0 0 1-3.066-16.554 21.925 21.925 0 0 1 9.538-13.874 21.925 21.925 0 0 1 16.554-3.066 21.925 21.925 0 0 1 13.874 9.538 21.925 21.925 0 0 1 3.066 16.554 21.925 21.925 0 0 1-9.538 13.874 21.925 21.925 0 0 1-16.554 3.066z"/><path d="M541.76 814.814a21.427 21.427 0 0 0-16.178 2.996 21.427 21.427 0 0 0-9.321 13.559 21.427 21.427 0 0 0 2.996 16.178 21.427 21.427 0 0 0 13.559 9.32 21.427 21.427 0 0 0 16.178-2.996 21.427 21.427 0 0 0 9.32-13.558 21.427 21.427 0 0 0-2.996-16.178 21.427 21.427 0 0 0-13.558-9.321m.208-.978c12.153 2.584 19.91 14.532 17.325 26.685-2.585 12.153-14.532 19.91-26.685 17.325-12.153-2.585-19.91-14.532-17.325-26.685 2.585-12.153 14.532-19.91 26.685-17.325z" fill="#707070"/><g transform="rotate(12.04 -3010.907 3588.042)" fill="#452897" stroke="#707070"><rect width="225" height="90" rx="22.5" stroke="none"/><rect x=".5" y=".5" width="224" height="89" rx="22" fill="none"/></g><g transform="rotate(12.04 -2369.049 3655.153)" fill="#452897" stroke="#707070"><rect width="225" height="90" rx="22.5" stroke="none"/><rect x=".5" y=".5" width="224" height="89" rx="22" fill="none"/></g><path d="M620.732 876.077a21.925 21.925 0 0 1-13.874-9.538 21.925 21.925 0 0 1-3.066-16.554 21.925 21.925 0 0 1 9.538-13.874 21.925 21.925 0 0 1 16.554-3.066 21.925 21.925 0 0 1 13.874 9.538 21.925 21.925 0 0 1 3.066 16.554 21.925 21.925 0 0 1-9.538 13.874 21.925 21.925 0 0 1-16.554 3.066z"/><path d="M629.78 833.534a21.427 21.427 0 0 0-16.178 2.996 21.427 21.427 0 0 0-9.321 13.559 21.427 21.427 0 0 0 2.996 16.178 21.427 21.427 0 0 0 13.559 9.32 21.427 21.427 0 0 0 16.178-2.996 21.427 21.427 0 0 0 9.32-13.558 21.427 21.427 0 0 0-2.996-16.178 21.427 21.427 0 0 0-13.558-9.321m.208-.978c12.153 2.584 19.91 14.532 17.325 26.685-2.585 12.153-14.532 19.91-26.685 17.325-12.153-2.585-19.91-14.532-17.325-26.685 2.585-12.153 14.532-19.91 26.685-17.325z" fill="#707070"/><g><path d="M708.752 894.797a21.925 21.925 0 0 1-13.874-9.538 21.925 21.925 0 0 1-3.066-16.554 21.925 21.925 0 0 1 9.538-13.874 21.925 21.925 0 0 1 16.554-3.066 21.925 21.925 0 0 1 13.874 9.538 21.925 21.925 0 0 1 3.066 16.554 21.925 21.925 0 0 1-9.538 13.874 21.925 21.925 0 0 1-16.554 3.066z"/><path d="M717.8 852.254a21.427 21.427 0 0 0-16.178 2.996 21.427 21.427 0 0 0-9.321 13.559 21.427 21.427 0 0 0 2.996 16.178 21.427 21.427 0 0 0 13.559 9.32 21.427 21.427 0 0 0 16.178-2.996 21.427 21.427 0 0 0 9.32-13.558 21.427 21.427 0 0 0-2.996-16.178 21.427 21.427 0 0 0-13.558-9.321m.208-.978c12.153 2.584 19.91 14.532 17.325 26.685-2.585 12.153-14.532 19.91-26.685 17.325-12.153-2.585-19.91-14.532-17.325-26.685 2.585-12.153 14.532-19.91 26.685-17.325z" fill="#707070"/></g><g transform="rotate(12.04 -2234.826 2371.438)" fill="#040000" stroke="#707070"><rect width="225" height="225" rx="45" stroke="none"/><rect x=".5" y=".5" width="224" height="224" rx="44.5" fill="none"/></g><path d="M117.545 655.131h-.012c-19.166 0-32.311-4.816-39.068-14.314a27.709 27.709 0 0 1-4.7-11.873 45.382 45.382 0 0 1 .4-14.838c2.656-15.07 11.572-33.746 26.5-55.51 14.674-21.4 34.752-45.2 59.676-70.732 25.156-25.779 54.545-52.607 87.352-79.738 33.93-28.062 70.781-55.828 109.529-82.527 35.928-24.754 72.264-47.744 108-68.328 34.574-19.918 68.117-37.32 99.7-51.725 31.191-14.229 59.846-25.252 85.166-32.764 25.6-7.594 47.27-11.445 64.412-11.445 19.174 0 32.322 4.816 39.08 14.313a27.682 27.682 0 0 1 4.7 11.873 45.445 45.445 0 0 1-.395 14.84c-2.66 15.074-11.576 33.75-26.5 55.51-14.674 21.395-34.75 45.193-59.676 70.734-25.16 25.781-54.549 52.609-87.354 79.738-33.926 28.057-70.775 55.822-109.529 82.523-35.937 24.762-72.275 47.75-108 68.328-34.574 19.918-68.117 37.318-99.7 51.723-31.182 14.225-59.836 25.248-85.168 32.764-25.595 7.592-47.267 11.446-64.413 11.448zm589.313-468.789c-12.7 0-30.533 4.027-53 11.963-22.088 7.8-48.074 19.186-77.238 33.824-29.447 14.785-61.312 32.482-94.713 52.6-34.57 20.826-70.039 43.8-105.422 68.289-37.295 25.809-72.945 52.223-105.961 78.508-31.887 25.389-60.461 49.967-84.926 73.057-24.295 22.93-43.723 43.617-57.746 61.482-14.33 18.258-22.547 32.99-24.424 43.787-.953 5.482-.236 9.938 2.129 13.242 3.342 4.668 9.943 7.035 19.621 7.035 12.705 0 30.535-4.029 53-11.965 22.092-7.807 48.078-19.187 77.24-33.824 29.434-14.777 61.3-32.475 94.715-52.6 34.566-20.822 70.033-43.8 105.42-68.287 37.3-25.814 72.949-52.229 105.963-78.512 31.891-25.393 60.465-49.973 84.926-73.059 24.283-22.918 43.713-43.6 57.746-61.482 14.33-18.262 22.549-32.992 24.422-43.785.953-5.484.236-9.937-2.129-13.238-3.34-4.668-9.937-7.035-19.611-7.035z" fill="#452897"/><g transform="translate(225.912 203.234)" fill="#fff" stroke="#040000" stroke-width="30"><ellipse cx="213" cy="205" rx="213" ry="205" stroke="none"/><ellipse cx="213" cy="205" rx="198" ry="190" fill="none"/></g><ellipse cx="184" cy="183.5" rx="184" ry="183.5" transform="translate(255.254 225.872)" fill="#fff"/><path d="M589.62 496.504c-1.11-1.959 3.741-26.066 5.412-27.519s-11.412-42.143-12.28-43.141-39.581 23.292-41.454 23.163-30.875 2.27-31.367.357-5.507-23.877-6.665-25.21-31.1-12.161-31.923-13.78 21.852-29.525 24.77-30.89 24.652-24.947 27.552-30.391 11.74-39.458 11.74-39.458 44.77-8.654 51.733-9.755c43.779 59.05 47.06 137.313 12.375 199.099-4.962-.751-9.417-1.643-9.892-2.475zM369.203 579.175l1.478-11.046 20.301-21.764 28.032 2.174 16.154 12.25s-3.945 19.209-1.017 19.408 36.123-15.432 36.123-15.432 13.105 15.865 15.534 17.87c.566.466.68 1.955.503 3.982a184.316 184.316 0 0 1-117.108-7.442zM300.58 529.92a182.035 182.035 0 0 1-43.643-98.828l13.472 3.484 51.682-19.751s25.411 13.463 21.913 16.561-3.96 30.265-5.975 32.697-25.939 18.44-25.939 18.44 19.676 17.888 18.515 21.3-10.46 30.706-12.472 33.141c-.621.752-2.454 3.214-4.723 6.304a184.98 184.98 0 0 1-12.83-13.348zM361.77 355.16c1.237-3.304-10.305-17.255-12.978-14.931s-17.6 18.225-23.657 24.077-28.424 3.062-28.424 3.062-8.377-14.361-10.716-12.327-22.818 25.038-22.818 25.038l-4.996-1.72a184.389 184.389 0 0 1 187.407-152.613c1.97 11.994 4.812 25.762 4.1 26.77-1.047 1.495-45.152 31.06-45.152 31.06s-.306 21.915.096 25.078-15.881 36.034-17.984 40.204a3.1 3.1 0 0 1-.749.892c-4.593 3.994-25.282 8.481-24.128 5.41z"/><path d="M117.543 655.131h-.012c-19.164 0-32.307-4.816-39.064-14.316a27.691 27.691 0 0 1-4.7-11.871 45.384 45.384 0 0 1 .4-14.838c2.656-15.07 11.57-33.746 26.5-55.508 13.541-19.746 31.736-41.6 54.08-64.945l16.629 24.654c-17.721 17.48-32.361 33.549-43.516 47.756-14.328 18.264-22.545 33-24.424 43.791-.951 5.486-.234 9.939 2.131 13.238 3.342 4.67 9.943 7.037 19.623 7.037 12.7 0 30.525-4.029 52.992-11.965 22.059-7.793 48.047-19.174 77.24-33.824 29.463-14.791 61.33-32.49 94.717-52.6 34.555-20.816 70.023-43.791 105.422-68.285 37.291-25.811 72.941-52.225 105.961-78.51 31.881-25.389 60.453-49.969 84.926-73.061 24.3-22.941 43.734-43.629 57.744-61.484 14.332-18.26 22.551-32.992 24.426-43.785.951-5.49.232-9.943-2.133-13.238-3.342-4.668-9.941-7.033-19.611-7.033h-.012c-12.7 0-30.523 4.023-52.992 11.961-11.27 3.98-23.717 8.961-37 14.8l-15.613-23.146c17.295-6.916 33.723-12.7 48.83-17.178 25.6-7.594 47.271-11.445 64.414-11.445 19.168 0 32.314 4.814 39.076 14.311a27.62 27.62 0 0 1 4.7 11.877 45.309 45.309 0 0 1-.395 14.838c-2.66 15.072-11.574 33.748-26.5 55.508-14.684 21.412-34.76 45.211-59.672 70.736-25.141 25.762-54.531 52.59-87.354 79.74-33.957 28.08-70.809 55.844-109.533 82.52-35.889 24.734-72.225 47.725-108 68.33-34.557 19.908-68.1 37.311-99.7 51.723-31.221 14.24-59.875 25.262-85.168 32.764-25.6 7.594-47.272 11.448-64.412 11.448z" fill="#452897"/></g></g></svg>