<svg xmlns="http://www.w3.org/2000/svg" xmlns:xlink="http://www.w3.org/1999/xlink" width="1080" height="1080" viewBox="0 0 1080 1080"><defs><clipPath id="b"><rect width="1080" height="1080"/></clipPath></defs><g id="a" clip-path="url(#b)"><g fill="#fff" stroke="#707070" stroke-width="1"><rect width="1080" height="1080" rx="199" stroke="none"/><rect x="0.5" y="0.5" width="1079" height="1079" rx="198.5" fill="none"/></g><g transform="translate(-14.328 -58.336)"><g transform="matrix(0.978, 0.208, -0.208, 0.978, 374.75, 410.477)"><g transform="translate(0 25)"><g transform="translate(0 -25)" fill="#040000" stroke="#707070" stroke-width="1"><rect width="675" height="495" rx="40" stroke="none"/><rect x="0.5" y="0.5" width="674" height="494" rx="39.5" fill="none"/></g><g transform="translate(46 19.794)" fill="#fff"><path d="M 584.5 404.5 L 0.5 404.5 L 0.5 0.5000152587890625 L 584.5 0.5000152587890625 L 584.5 404.5 Z" stroke="none"/><path d="M 1 1.000030517578125 L 1 404 L 584 404 L 584 1.000030517578125 L 1 1.000030517578125 M 0 3.0517578125e-05 L 585 3.0517578125e-05 L 585 405 L 0 405 L 0 3.0517578125e-05 Z" stroke="none" fill="#707070"/></g></g><g transform="translate(225 359.794)"><path d="M 22.5 44.5 C 19.52980041503906 44.5 16.64871025085449 43.91838836669922 13.93675994873047 42.77133941650391 C 11.31707000732422 41.66329956054688 8.964249610900879 40.07695007324219 6.943649768829346 38.05635070800781 C 4.923049926757813 36.03575134277344 3.336699962615967 33.68292999267578 2.228660106658936 31.06324005126953 C 1.081609964370728 28.35128974914551 0.5 25.47019958496094 0.5 22.5 C 0.5 19.52980041503906 1.081609964370728 16.64871025085449 2.228660106658936 13.93675994873047 C 3.336699962615967 11.31707000732422 4.923049926757813 8.964249610900879 6.943649768829346 6.943649768829346 C 8.964249610900879 4.923049926757813 11.31707000732422 3.336699962615967 13.93675994873047 2.228660106658936 C 16.64871025085449 1.081609964370728 19.52980041503906 0.5 22.5 0.5 C 25.47019958496094 0.5 28.35128974914551 1.081609964370728 31.06324005126953 2.228660106658936 C 33.68292999267578 3.336699962615967 36.03575134277344 4.923049926757813 38.05635070800781 6.943649768829346 C 40.07695007324219 8.964249610900879 41.66329956054688 11.31707000732422 42.77133941650391 13.93675994873047 C 43.91838836669922 16.64871025085449 44.5 19.52980041503906 44.5 22.5 C 44.5 25.47019958496094 43.91838836669922 28.35128974914551 42.77133941650391 31.06324005126953 C 41.66329956054688 33.68292999267578 40.07695007324219 36.03575134277344 38.05635070800781 38.05635070800781 C 36.03575134277344 40.07695007324219 33.68292999267578 41.66329956054688 31.06324005126953 42.77133941650391 C 28.35128974914551 43.91838836669922 25.47019958496094 44.5 22.5 44.5 Z" stroke="none"/><path d="M 22.5 1 C 19.59708023071289 1 16.78152084350586 1.568321228027344 14.13154029846191 2.689170837402344 C 11.57144927978516 3.771991729736328 9.272048950195313 5.322360992431641 7.297199249267578 7.297199249267578 C 5.322360992431641 9.272048950195313 3.771991729736328 11.57144927978516 2.689170837402344 14.13154029846191 C 1.568321228027344 16.78152084350586 1 19.59708023071289 1 22.5 C 1 25.40291976928711 1.568321228027344 28.21847915649414 2.689170837402344 30.86845970153809 C 3.771991729736328 33.42855072021484 5.322360992431641 35.72795104980469 7.297199249267578 37.70280075073242 C 9.272048950195313 39.67763900756836 11.57144927978516 41.22800827026367 14.13154029846191 42.31082916259766 C 16.78152084350586 43.43167877197266 19.59708023071289 44 22.5 44 C 25.40291976928711 44 28.21847915649414 43.43167877197266 30.86845970153809 42.31082916259766 C 33.42855072021484 41.22800827026367 35.72795104980469 39.67763900756836 37.70280075073242 37.70280075073242 C 39.67763900756836 35.72795104980469 41.22800827026367 33.42855072021484 42.31082916259766 30.86845970153809 C 43.43167877197266 28.21847915649414 44 25.40291976928711 44 22.5 C 44 19.59708023071289 43.43167877197266 16.78152084350586 42.31082916259766 14.13154029846191 C 41.22800827026367 11.57144927978516 39.67763900756836 9.272048950195313 37.70280075073242 7.297199249267578 C 35.72795104980469 5.322360992431641 33.42855072021484 3.771991729736328 30.86845970153809 2.689170837402344 C 28.21847915649414 1.568321228027344 25.40291976928711 1 22.5 1 M 22.5 0 C 34.92641067504883 0 45 10.07358932495117 45 22.5 C 45 34.92641067504883 34.92641067504883 45 22.5 45 C 10.07358932495117 45 0 34.92641067504883 0 22.5 C 0 10.07358932495117 10.07358932495117 0 22.5 0 Z" stroke="none" fill="#707070"/></g><g transform="translate(360 224.794)" fill="#452897" stroke="#707070" stroke-width="1"><rect width="225" height="90" rx="22.5" stroke="none"/><rect x="0.5" y="0.5" width="224" height="89" rx="22" fill="none"/></g><g transform="translate(360 89.794)" fill="#452897" stroke="#707070" stroke-width="1"><rect width="225" height="90" rx="22.5" stroke="none"/><rect x="0.5" y="0.5" width="224" height="89" rx="22" fill="none"/></g><g transform="translate(315 359.794)"><path d="M 22.5 44.5 C 19.52980041503906 44.5 16.64871025085449 43.91838836669922 13.93675994873047 42.77133941650391 C 11.31707000732422 41.66329956054688 8.964249610900879 40.07695007324219 6.943649768829346 38.05635070800781 C 4.923049926757813 36.03575134277344 3.336699962615967 33.68292999267578 2.228660106658936 31.06324005126953 C 1.081609964370728 28.35128974914551 0.5 25.47019958496094 0.5 22.5 C 0.5 19.52980041503906 1.081609964370728 16.64871025085449 2.228660106658936 13.93675994873047 C 3.336699962615967 11.31707000732422 4.923049926757813 8.964249610900879 6.943649768829346 6.943649768829346 C 8.964249610900879 4.923049926757813 11.31707000732422 3.336699962615967 13.93675994873047 2.228660106658936 C 16.64871025085449 1.081609964370728 19.52980041503906 0.5 22.5 0.5 C 25.47019958496094 0.5 28.35128974914551 1.081609964370728 31.06324005126953 2.228660106658936 C 33.68292999267578 3.336699962615967 36.03575134277344 4.923049926757813 38.05635070800781 6.943649768829346 C 40.07695007324219 8.964249610900879 41.66329956054688 11.31707000732422 42.77133941650391 13.93675994873047 C 43.91838836669922 16.64871025085449 44.5 19.52980041503906 44.5 22.5 C 44.5 25.47019958496094 43.91838836669922 28.35128974914551 42.77133941650391 31.06324005126953 C 41.66329956054688 33.68292999267578 40.07695007324219 36.03575134277344 38.05635070800781 38.05635070800781 C 36.03575134277344 40.07695007324219 33.68292999267578 41.66329956054688 31.06324005126953 42.77133941650391 C 28.35128974914551 43.91838836669922 25.47019958496094 44.5 22.5 44.5 Z" stroke="none"/><path d="M 22.5 1 C 19.59708023071289 1 16.78152084350586 1.568321228027344 14.13154029846191 2.689170837402344 C 11.57144927978516 3.771991729736328 9.272048950195313 5.322360992431641 7.297199249267578 7.297199249267578 C 5.322360992431641 9.272048950195313 3.771991729736328 11.57144927978516 2.689170837402344 14.13154029846191 C 1.568321228027344 16.78152084350586 1 19.59708023071289 1 22.5 C 1 25.40291976928711 1.568321228027344 28.21847915649414 2.689170837402344 30.86845970153809 C 3.771991729736328 33.42855072021484 5.322360992431641 35.72795104980469 7.297199249267578 37.70280075073242 C 9.272048950195313 39.67763900756836 11.57144927978516 41.22800827026367 14.13154029846191 42.31082916259766 C 16.78152084350586 43.43167877197266 19.59708023071289 44 22.5 44 C 25.40291976928711 44 28.21847915649414 43.43167877197266 30.86845970153809 42.31082916259766 C 33.42855072021484 41.22800827026367 35.72795104980469 39.67763900756836 37.70280075073242 37.70280075073242 C 39.67763900756836 35.72795104980469 41.22800827026367 33.42855072021484 42.31082916259766 30.86845970153809 C 43.43167877197266 28.21847915649414 44 25.40291976928711 44 22.5 C 44 19.59708023071289 43.43167877197266 16.78152084350586 42.31082916259766 14.13154029846191 C 41.22800827026367 11.57144927978516 39.67763900756836 9.272048950195313 37.70280075073242 7.297199249267578 C 35.72795104980469 5.322360992431641 33.42855072021484 3.771991729736328 30.86845970153809 2.689170837402344 C 28.21847915649414 1.568321228027344 25.40291976928711 1 22.5 1 M 22.5 0 C 34.92641067504883 0 45 10.07358932495117 45 22.5 C 45 34.92641067504883 34.92641067504883 45 22.5 45 C 10.07358932495117 45 0 34.92641067504883 0 22.5 C 0 10.07358932495117 10.07358932495117 0 22.5 0 Z" stroke="none" fill="#707070"/></g><g transform="translate(405 359.794)"><path d="M 22.5 44.5 C 19.52980041503906 44.5 16.64871025085449 43.91838836669922 13.93675994873047 42.77133941650391 C 11.31707000732422 41.66329956054688 8.964249610900879 40.07695007324219 6.943649768829346 38.05635070800781 C 4.923049926757813 36.03575134277344 3.336699962615967 33.68292999267578 2.228660106658936 31.06324005126953 C 1.081609964370728 28.35128974914551 0.5 25.47019958496094 0.5 22.5 C 0.5 19.52980041503906 1.081609964370728 16.64871025085449 2.228660106658936 13.93675994873047 C 3.336699962615967 11.31707000732422 4.923049926757813 8.964249610900879 6.943649768829346 6.943649768829346 C 8.964249610900879 4.923049926757813 11.31707000732422 3.336699962615967 13.93675994873047 2.228660106658936 C 16.64871025085449 1.081609964370728 19.52980041503906 0.5 22.5 0.5 C 25.47019958496094 0.5 28.35128974914551 1.081609964370728 31.06324005126953 2.228660106658936 C 33.68292999267578 3.336699962615967 36.03575134277344 4.923049926757813 38.05635070800781 6.943649768829346 C 40.07695007324219 8.964249610900879 41.66329956054688 11.31707000732422 42.77133941650391 13.93675994873047 C 43.91838836669922 16.64871025085449 44.5 19.52980041503906 44.5 22.5 C 44.5 25.47019958496094 43.91838836669922 28.35128974914551 42.77133941650391 31.06324005126953 C 41.66329956054688 33.68292999267578 40.07695007324219 36.03575134277344 38.05635070800781 38.05635070800781 C 36.03575134277344 40.07695007324219 33.68292999267578 41.66329956054688 31.06324005126953 42.77133941650391 C 28.35128974914551 43.91838836669922 25.47019958496094 44.5 22.5 44.5 Z" stroke="none"/><path d="M 22.5 1 C 19.59708023071289 1 16.78152084350586 1.568321228027344 14.13154029846191 2.689170837402344 C 11.57144927978516 3.771991729736328 9.272048950195313 5.322360992431641 7.297199249267578 7.297199249267578 C 5.322360992431641 9.272048950195313 3.771991729736328 11.57144927978516 2.689170837402344 14.13154029846191 C 1.568321228027344 16.78152084350586 1 19.59708023071289 1 22.5 C 1 25.40291976928711 1.568321228027344 28.21847915649414 2.689170837402344 30.86845970153809 C 3.771991729736328 33.42855072021484 5.322360992431641 35.72795104980469 7.297199249267578 37.70280075073242 C 9.272048950195313 39.67763900756836 11.57144927978516 41.22800827026367 14.13154029846191 42.31082916259766 C 16.78152084350586 43.43167877197266 19.59708023071289 44 22.5 44 C 25.40291976928711 44 28.21847915649414 43.43167877197266 30.86845970153809 42.31082916259766 C 33.42855072021484 41.22800827026367 35.72795104980469 39.67763900756836 37.70280075073242 37.70280075073242 C 39.67763900756836 35.72795104980469 41.22800827026367 33.42855072021484 42.31082916259766 30.86845970153809 C 43.43167877197266 28.21847915649414 44 25.40291976928711 44 22.5 C 44 19.59708023071289 43.43167877197266 16.78152084350586 42.31082916259766 14.13154029846191 C 41.22800827026367 11.57144927978516 39.67763900756836 9.272048950195313 37.70280075073242 7.297199249267578 C 35.72795104980469 5.322360992431641 33.42855072021484 3.771991729736328 30.86845970153809 2.689170837402344 C 28.21847915649414 1.568321228027344 25.40291976928711 1 22.5 1 M 22.5 0 C 34.92641067504883 0 45 10.07358932495117 45 22.5 C 45 34.92641067504883 34.92641067504883 45 22.5 45 C 10.07358932495117 45 0 34.92641067504883 0 22.5 C 0 10.07358932495117 10.07358932495117 0 22.5 0 Z" stroke="none" fill="#707070"/></g><g transform="translate(90 89.794)" fill="#040000" stroke="#707070" stroke-width="1"><rect width="225" height="225" rx="45" stroke="none"/><rect x="0.5" y="0.5" width="224" height="224" rx="44.5" fill="none"/></g></g><path d="M-20112.494,21881.131h-.012c-19.166,0-32.311-4.816-39.068-14.314a27.709,27.709,0,0,1-4.7-11.873,45.382,45.382,0,0,1,.4-14.838c2.656-15.07,11.572-33.746,26.5-55.51,14.674-21.4,34.752-45.2,59.676-70.732,25.156-25.779,54.545-52.607,87.352-79.738,33.93-28.062,70.781-55.828,109.529-82.527,35.928-24.754,72.264-47.744,108-68.328,34.574-19.918,68.117-37.32,99.7-51.725,31.191-14.229,59.846-25.252,85.166-32.764,25.6-7.594,47.27-11.445,64.412-11.445,19.174,0,32.322,4.816,39.08,14.313a27.682,27.682,0,0,1,4.7,11.873,45.445,45.445,0,0,1-.395,14.84c-2.66,15.074-11.576,33.75-26.5,55.51-14.674,21.395-34.75,45.193-59.676,70.734-25.16,25.781-54.549,52.609-87.354,79.738-33.926,28.057-70.775,55.822-109.529,82.523-35.937,24.762-72.275,47.75-108,68.328-34.574,19.918-68.117,37.318-99.7,51.723-31.182,14.225-59.836,25.248-85.168,32.764C-20073.676,21877.275-20095.348,21881.129-20112.494,21881.131Zm589.313-468.789c-12.7,0-30.533,4.027-53,11.963-22.088,7.8-48.074,19.186-77.238,33.824-29.447,14.785-61.312,32.482-94.713,52.6-34.57,20.826-70.039,43.8-105.422,68.289-37.295,25.809-72.945,52.223-105.961,78.508-31.887,25.389-60.461,49.967-84.926,73.057-24.295,22.93-43.723,43.617-57.746,61.482-14.33,18.258-22.547,32.99-24.424,43.787-.953,5.482-.236,9.938,2.129,13.242,3.342,4.668,9.943,7.035,19.621,7.035,12.705,0,30.535-4.029,53-11.965,22.092-7.807,48.078-19.187,77.24-33.824,29.434-14.777,61.3-32.475,94.715-52.6,34.566-20.822,70.033-43.8,105.42-68.287,37.3-25.814,72.949-52.229,105.963-78.512,31.891-25.393,60.465-49.973,84.926-73.059,24.283-22.918,43.713-43.6,57.746-61.482,14.33-18.262,22.549-32.992,24.422-43.785.953-5.484.236-9.937-2.129-13.238-3.34-4.668-9.937-7.035-19.611-7.035Z" transform="translate(20230.039 -21226)" fill="#452897"/><g transform="translate(225.912 203.234)" fill="#fff" stroke="#040000" stroke-width="30"><ellipse cx="213" cy="205" rx="213" ry="205" stroke="none"/><ellipse cx="213" cy="205" rx="198" ry="190" fill="none"/></g><ellipse cx="184" cy="183.5" rx="184" ry="183.5" transform="translate(255.254 225.872)" fill="#fff"/><path d="M32.767,176.6c.446-2.207,19.924-17.218,22.138-17.218S73.94,120.089,73.94,118.766s-45.153-8.389-46.482-9.715S2.667,90.509,3.551,88.742,15.06,67.109,15.06,65.343-.433,35.762.008,34s35.862-7.947,38.96-7.063S73.94,24.283,79.7,22.077,114.447,0,114.447,0,153.912,22.84,159.89,26.577c-5.7,73.288-54.569,134.506-121.281,158.381C35.357,181.136,32.58,177.54,32.767,176.6Z" transform="translate(449.031 384.719) rotate(-41)"/><path d="M19.476,185.412l8.362-7.367,29.6-3.106L77.168,194.97l4.154,19.843s-15.579,11.909-13.5,13.98,37.387,12.052,37.387,12.052-.518,20.572,0,23.678c.121.723-.77,1.921-2.233,3.335A184.316,184.316,0,0,1,19.476,185.412ZM0,103.219A182.035,182.035,0,0,1,31.9,0l7.881,11.468,51.963,19S102.09,57.3,97.417,57.343,74.573,77.586,71.457,78.1,39.782,75,39.782,75s3.114,26.408,0,28.221-28.04,16.312-31.156,16.83c-.962.16-3.96.815-7.7,1.659A184.98,184.98,0,0,1,0,103.219Z" transform="translate(232.863 452.02) rotate(-41)"/><path d="M93.4,91.752c3.1-1.682,3.542-19.783,0-19.783S68.161,74.178,59.75,74.62,36.289,58.283,36.289,58.283s3.1-16.334,0-16.334S2.642,45.876,2.642,45.876L0,41.3a184.389,184.389,0,0,1,241.56,7.772c-6.381,10.344-13.269,22.6-14.467,22.893-1.772.442-54.455-6.18-54.455-6.18S158.03,82.123,156.258,84.774s-35.626,16.776-39.949,18.543a3.1,3.1,0,0,1-1.15.182C109.072,103.5,90.514,93.314,93.4,91.752Z" transform="translate(231.086 347.189) rotate(-41)"/><path d="M-20163.785,21889.881h-.012c-19.164,0-32.307-4.816-39.064-14.316a27.691,27.691,0,0,1-4.7-11.871,45.384,45.384,0,0,1,.4-14.838c2.656-15.07,11.57-33.746,26.5-55.508,13.541-19.746,31.736-41.6,54.08-64.945l16.629,24.654c-17.721,17.48-32.361,33.549-43.516,47.756-14.328,18.264-22.545,33-24.424,43.791-.951,5.486-.234,9.939,2.131,13.238,3.342,4.67,9.943,7.037,19.623,7.037,12.7,0,30.525-4.029,52.992-11.965,22.059-7.793,48.047-19.174,77.24-33.824,29.463-14.791,61.33-32.49,94.717-52.6,34.555-20.816,70.023-43.791,105.422-68.285,37.291-25.811,72.941-52.225,105.961-78.51,31.881-25.389,60.453-49.969,84.926-73.061,24.3-22.941,43.734-43.629,57.744-61.484,14.332-18.26,22.551-32.992,24.426-43.785.951-5.49.232-9.943-2.133-13.238-3.342-4.668-9.941-7.033-19.611-7.033h-.012c-12.7,0-30.523,4.023-52.992,11.961-11.27,3.98-23.717,8.961-37,14.8l-15.613-23.146c17.295-6.916,33.723-12.7,48.83-17.178,25.6-7.594,47.271-11.445,64.414-11.445,19.168,0,32.314,4.814,39.076,14.311a27.62,27.62,0,0,1,4.7,11.877,45.309,45.309,0,0,1-.395,14.838c-2.66,15.072-11.574,33.748-26.5,55.508-14.684,21.412-34.76,45.211-59.672,70.736-25.141,25.762-54.531,52.59-87.354,79.74-33.957,28.08-70.809,55.844-109.533,82.52-35.889,24.734-72.225,47.725-108,68.33-34.557,19.908-68.1,37.311-99.7,51.723-31.221,14.24-59.875,25.262-85.168,32.764C-20124.973,21886.027-20146.645,21889.881-20163.785,21889.881Z" transform="translate(20281.328 -21234.75)" fill="#452897"/></g></g></svg>