<svg xmlns="http://www.w3.org/2000/svg" width="210mm" height="297mm" viewBox="0 0 210 297"><g style="opacity:1;fill:#fff"><path d="M174.66 205.891c-.148-.058-.405-.235-.572-.394-.651-.618-.605 1.2-.605-23.698s-.046-23.082.605-23.698c.61-.577.46-.565 7.495-.6 5.502-.027 6.701-.007 7.497.131a13.435 13.435 0 0 1 10.969 10.934c.206 1.183.203 3.251-.008 4.453a13.155 13.155 0 0 1-3.735 7.176c-1.864 1.857-3.898 2.979-6.628 3.655-.673.166-1.337.182-6.6.152l-5.85-.034-.029 10.3-.028 10.3-.293.498c-.458.778-1.429 1.14-2.22.825zm14.42-26.173c3.246-.871 5.594-3.082 6.588-6.204.35-1.097.478-3.147.27-4.336-.47-2.702-2.167-5.074-4.612-6.447-1.869-1.05-3.781-1.297-10.012-1.297h-4.09v18.654l5.48-.065c5.237-.061 5.517-.075 6.376-.305zm57.255 26.116c-2.766-.304-5.922-1.21-8.231-2.36-5.696-2.838-10.055-7.676-12.167-13.502-3.234-8.922-1.075-18.744 5.59-25.439 3.602-3.617 8.029-5.919 13.202-6.864 1.106-.203 1.665-.235 4.011-.235 2.347 0 2.905.032 4.011.235 4.098.749 7.397 2.189 10.688 4.664 2.553 1.921 4.581 4.233 6.458 7.36l.24.4H265.244l-.526-.721c-.69-.948-2.661-2.915-3.74-3.732-3.607-2.734-7.7-4.099-12.292-4.099-5.44 0-10.293 2.013-14.17 5.877-3.862 3.848-5.875 8.734-5.872 14.25.003 5.478 2.021 10.354 5.872 14.191 3.877 3.864 8.73 5.876 14.17 5.876 4.584 0 8.708-1.372 12.27-4.084.871-.663 2.66-2.372 3.307-3.16l.376-.456 2.483.028 2.483.03-.633.961c-2.714 4.121-7.035 7.584-11.584 9.283-2.91 1.087-4.987 1.47-8.22 1.512-1.323.018-2.598.011-2.833-.014zm-111.106-.142c-.197-.047-.57-.293-.829-.547l-.47-.461v-.883c0-.832.02-.904.329-1.256.18-.205.585-.5.9-.654l.573-.28 5.54.092c3.047.051 8.114.066 11.26.032l5.718-.06.855-.288c2.952-.993 5.153-3.507 5.78-6.599.217-1.078.161-3.217-.112-4.224-.248-.916-1.04-2.454-1.664-3.233-1.102-1.377-2.795-2.47-4.538-2.927-.81-.213-1.223-.229-7.804-.3l-6.948-.077-1.05-.281c-2.195-.589-3.975-1.583-5.617-3.136-2.74-2.593-4.195-5.98-4.195-9.768 0-3.789 1.455-7.176 4.195-9.77 1.635-1.545 3.394-2.53 5.618-3.143l1.049-.289 11.844-.03c7.919-.02 11.98.008 12.255.081.706.19 1.53 1.374 1.353 1.941-.025.08-.075.277-.11.438-.08.362-.624.995-1.065 1.236-.305.167-1.14.184-10.166.204-12.762.028-13.756.096-15.823 1.085-2.163 1.033-3.762 2.932-4.605 5.467-.286.859-.303 1.012-.303 2.78 0 1.767.017 1.92.303 2.779 1.05 3.159 3.241 5.277 6.317 6.108.82.222 1.14.234 7.803.305 6.595.069 6.993.084 7.814.298 5.852 1.527 9.771 6.596 9.771 12.638 0 5.785-3.639 10.75-9.144 12.474l-.958.3-11.758.017c-6.468.009-11.92-.022-12.118-.07zm141.679-.005c-.668-.097-1.223-.419-1.533-.888l-.284-.43-.028-22.554-.027-22.555.227-.47c.138-.284.4-.584.661-.757l.434-.287 13.317.003c12.77.002 13.333.011 13.723.202.224.11.537.37.695.577.246.322.288.48.288 1.089 0 .608-.042.766-.288 1.089a2.374 2.374 0 0 1-.695.58c-.39.194-.886.203-12.513.23l-12.106.029v9.298c0 5.114.036 9.303.08 9.309.044.006 4.722.019 10.396.03 11.419.022 10.643-.027 11.262.709.61.725.61 1.624 0 2.35-.619.735.157.686-11.262.708-5.674.011-10.352.025-10.396.03-.044.006-.08 4.064-.08 9.017v9.006h25.067l.498.293c.558.328.946.974.946 1.578 0 .604-.388 1.25-.946 1.578l-.498.293-13.255.002c-7.29.002-13.448-.026-13.683-.06zm-87.958-.152c-.225-.08-.506-.234-.626-.342-.342-.31-.623-.95-.623-1.421 0-.475.106-.692 2.91-5.939l3.77-7.055c1.16-2.176 2.292-4.292 2.514-4.704.221-.411 1.737-3.25 3.368-6.307a13265.038 13265.038 0 0 1 9.565-17.905c.896-1.676 1.72-3.175 1.831-3.332.255-.358 1.011-.73 1.484-.73.198 0 .568.1.823.224.763.369.933.786 1.482 3.64.265 1.373 1.198 6.152 2.075 10.62 2.252 11.484 5.966 30.499 6.048 30.967.13.745-.386 1.677-1.093 1.973-.423.176-1.14.19-1.458.026-.403-.207-.92-.76-1.03-1.102-.058-.18-.66-3.167-1.338-6.636l-1.95-9.968-.718-3.661h-13.697l-2.125 3.982c-2.753 5.16-7.745 14.507-8.406 15.74-.662 1.235-.986 1.633-1.53 1.88-.52.237-.73.245-1.276.05zm26-26.917c-.162-.838-.76-3.904-1.327-6.815-.568-2.91-1.085-5.568-1.15-5.906-.064-.338-.15-.615-.19-.615-.04 0-.231.301-.425.669l-.723 1.362a22522.884 22522.884 0 0 0-1.544 2.887c-.205.382-1.396 2.619-2.645 4.97a669.316 669.316 0 0 1-2.47 4.624l-.199.347h10.968zm-24.477-29.849c-4.867-.79-9.138-3.395-12.05-7.348-1.68-2.279-2.666-4.412-3.402-7.353l-.307-1.23.003-15.5c.004-17.261-.061-15.795.736-16.495.885-.777 2.2-.467 2.819.663.166.304.182 1.007.185 8.296.007 16.84.04 19.408.274 21.196.548 4.174 1.826 6.932 4.423 9.548 2.808 2.827 6.075 4.211 9.945 4.211 3.708 0 6.94-1.3 9.638-3.88 2.264-2.165 3.766-4.884 4.469-8.092.28-1.283.373-5.511.41-18.76.038-13.544-.022-12.493.761-13.182a1.675 1.675 0 0 1 2.26 0c.798.7.733-.797.731 16.762v15.768l-.332 1.23c-1.945 7.232-7.352 12.489-14.41 14.009-1.385.298-4.756.384-6.154.157zm-26.272-.51c-.25-.133-1.667-.946-3.149-1.807-7.984-4.64-11.46-6.614-11.572-6.571-.069.026-1.515.851-3.214 1.833s-4.219 2.436-5.6 3.232c-2.645 1.524-3.81 2.207-4.858 2.845-.562.343-.717.388-1.348.388-.792 0-1.076-.17-1.452-.868-.188-.347-.196-1.278-.195-23.131 0-21.106.013-22.794.18-23.101.61-1.13 1.931-1.44 2.816-.663.806.708.735-1.39.738 21.76.002 11.42.034 20.765.073 20.765.039 0 1.578-.871 3.421-1.935 1.843-1.064 4.575-2.64 6.071-3.501l2.722-1.566h1.506l2.565 1.486 3.795 2.2c4.459 2.592 6.32 3.64 6.39 3.598.042-.026.072-9.157.065-20.29-.007-11.132.03-20.472.08-20.756.114-.649.42-1.086.953-1.357a1.891 1.891 0 0 1 1.7 0c.533.271.84.708.954 1.357.05.284.085 10.498.076 22.698-.013 20.316-.029 22.208-.19 22.502-.558 1.025-1.582 1.382-2.527.882zm27.749-33.868c-.22-.116-.533-.411-.695-.655l-.294-.444-.03-5.649c-.021-3.952.006-5.783.09-6.097.158-.584.775-1.201 1.36-1.359.823-.221 1.72.206 2.095.998.153.322.173 1.044.173 6.206 0 6.346.021 6.114-.605 6.707-.584.553-1.389.665-2.094.293z" style="fill:#fff;stroke-width:.10689892" transform="matrix(.54842 0 0 .54842 36.938 68.136)"/><path d="M-25.868 338.192c-19.792-2.13-31.62-12.573-35.335-31.201-1.046-5.244-1.274-14.412-.52-20.917 1.298-11.215 4.185-22.59 8.946-35.242 6.604-17.556 18.286-40.629 29.248-57.771a635.186 635.186 0 0 0 3.363-5.314c3.998-6.43 18.877-27.965 20.254-29.314.47-.461.48-.425.092.342-.237.472-1.398 2.567-2.58 4.657-1.18 2.09-3.293 6.178-4.694 9.085-1.4 2.908-4.009 7.524-5.796 10.258-1.787 2.734-4.137 6.36-5.222 8.057l-3.696 5.78c-.947 1.482-3.15 5.185-4.895 8.229A771.42 771.42 0 0 1-31 212.26c-2.687 4.508-10.195 19.68-13.403 27.085-8.359 19.295-12.496 33.309-14.051 47.594-.527 4.838-.237 15.965.51 19.597 2.4 11.658 8.285 19.713 17.802 24.36 6.002 2.932 12.162 4.115 21.479 4.126 13.74.016 34.856-5.384 52.177-13.342 1.264-.58 2.826-1.276 3.472-1.546 4.338-1.813 11.544-5.367 20.459-10.092 3.33-1.764 5.04-2.744 14.571-8.345 1.886-1.108 5.126-2.726 7.2-3.596 2.074-.869 6.906-3.197 10.737-5.174 3.832-1.976 7.038-3.522 7.125-3.435.087.087-.888.831-2.166 1.653-1.279.822-5.179 3.36-8.667 5.638-7.474 4.882-22.518 13.761-29.314 17.302-2.64 1.375-6.189 3.231-7.886 4.125-3.374 1.777-15.795 7.34-21.46 9.614-13.274 5.325-27.75 9.097-39.347 10.252-3.345.333-11.462.4-14.107.115zm275.754-197.76c.083-.188 1.618-2.888 3.41-6 1.793-3.11 4.818-8.742 6.722-12.513 1.904-3.772 5.004-9.249 6.89-12.172 1.885-2.922 5.881-9.557 8.88-14.742 26.66-46.103 36.69-83.245 28.745-106.463-2.976-8.698-9.685-15.731-18.325-19.213-16.905-6.811-44.892-2.214-76.364 12.543-.754.354-2.374 1.075-3.6 1.603-1.225.528-5.777 2.794-10.114 5.036-6.96 3.598-11.727 6.284-22.441 12.649-2.714 1.612-9.178 5.793-19.216 12.43-2.357 1.558-6.445 3.906-9.085 5.218-5.09 2.53-7.454 3.786-10.373 5.515-.99.586-2.302 1.31-2.914 1.608l-1.113.542 1.2-1.043c.66-.574 1.816-1.47 2.57-1.991.752-.521 3.718-2.645 6.589-4.72 9.508-6.868 9.342-6.755 25.298-17.147 1.508-.983 5.057-3.142 7.885-4.8 2.829-1.656 6.827-4.001 8.885-5.21 3.792-2.228 21.168-11.173 23.686-12.193 1.49-.604 4.634-1.998 7.886-3.496 9.376-4.32 25.84-9.552 35.485-11.277 11.59-2.073 22.405-2.205 30.357-.372C296.767-32.1 306.58-21.682 309.66-5.167c.849 4.55 1.012 15.283.318 20.93-2.774 22.567-12.664 48.404-30.464 79.584-2.637 4.62-5.687 9.789-6.776 11.486-1.09 1.697-3.49 5.477-5.332 8.4-4.061 6.44-18.236 26.829-17.52 25.2z" style="fill:#fff;stroke-width:.34285343" transform="matrix(.54842 0 0 .54842 36.938 68.136)"/><g style="fill:#fff"><path style="fill:#fff;stroke-width:.18371743" d="M90.122 196.141c-9.003-.882-15.846-2.775-22.965-6.354-3.86-1.94-5.934-3.239-9.666-6.05-7.642-5.756-14.385-14.018-18.376-22.514-1-2.128-2.359-5.51-2.754-6.851-.218-.741-.252-.775-.366-.367-.069.247-.133 1.386-.143 2.53a44.256 44.256 0 0 1-.288 4.226c-.316 2.526-.645 8.5-.515 9.355.05.328.01.597-.087.597-.273 0-.467-3.46-.673-12.033-.172-7.142-.313-9.811-.823-15.616l-.113-1.286-.259.918c-.38 1.347-1.08 2.664-1.417 2.664-.204 0-.254-.097-.165-.321.128-.324.184-.56.39-1.646.061-.324.214-.889.34-1.254.125-.366.19-.86.145-1.097-.073-.387-.342-.176-2.532 1.989-2.703 2.671-7.687 7.387-8.87 8.392-.415.353-.82.601-.9.551-.265-.17-.2-.258 2.429-3.29a77.122 77.122 0 0 0 1.23-1.447c.571-.711 3.329-3.79 4.56-5.092 3.06-3.234 3.541-3.774 3.453-3.862-.052-.052-.913.232-1.913.632-3.176 1.268-4.299 1.657-4.299 1.489 0-.218.897-.84 1.467-1.017.251-.078 1.35-.645 2.441-1.261 1.739-.98 1.929-1.134 1.534-1.24-.247-.066-2.958-.175-6.023-.242-3.065-.067-6.51-.18-7.653-.25-1.144-.07-2.26-.06-2.48.021-.22.083-1.522.062-2.891-.045-1.37-.108-3.044-.196-3.72-.196-1.157 0-1.626-.226-.909-.437.33-.097 2.858-.436 3.353-.45 2.233-.06 5.775-.244 8.727-.453 2.02-.142 3.922-.255 4.225-.249.646.013 5.372-.392 6.405-.548l.71-.107-.802-.457c-1.253-.716-3.489-1.926-4.234-2.292-.373-.182-.725-.408-.782-.5-.155-.251 1.94.276 3.19.802.596.252 1.45.539 1.896.639.446.1.97.24 1.164.313.194.072-.184-.443-.841-1.145a47.145 47.145 0 0 1-1.927-2.191c-.403-.504-1.636-1.867-2.738-3.03-1.103-1.161-2.437-2.69-2.964-3.398-.527-.707-1.135-1.443-1.35-1.636-.462-.414-.501-.66-.104-.66.158 0 1.088.797 2.067 1.77.979.975 2.359 2.308 3.066 2.964a430.16 430.16 0 0 1 2.441 2.284c.636.6 1.702 1.602 2.37 2.227l1.213 1.135-.111-1.01c-.147-1.334-.255-1.968-.366-2.149-.05-.082-.147-.582-.214-1.113-.101-.802-.074-.964.163-.964.203 0 .457.56.875 1.924.324 1.058.621 1.892.661 1.852.258-.258 1.207-9.852 1.428-14.432.06-1.263.147-2.412.193-2.553.045-.141.132-2.125.192-4.41.103-3.919.258-5.134.503-3.94.059.287.194 1.97.3 3.738.106 1.768.23 3.422.275 3.674.045.253.091.914.102 1.47.042 2.246.144 2.244 1.027-.02 1.94-4.977 4.539-9.615 7.903-14.102 10.23-13.644 24.429-21.975 41.58-24.397 3.254-.46 12.157-.457 15.432.005 6.32.891 11.587 2.356 17.054 4.742 3.632 1.586 9.521 4.954 9.297 5.317-.058.093-.202.111-.322.04-.12-.07-.846-.52-1.616-.999-6.125-3.813-14.3-6.641-22.596-7.817-2.866-.406-11.624-.467-14.31-.1-6.391.875-11.614 2.284-16.626 4.487-16.203 7.119-28.49 20.948-33.588 37.805-1.091 3.608-2.325 10.023-2.328 12.107 0 .611.013.6.596-.487 1.337-2.49 1.452-2.664 1.637-2.478.123.122.062.423-.182.9-.201.395-.663 1.571-1.026 2.614l-.66 1.896.598-.534c.329-.294 1.462-1.378 2.519-2.408 1.056-1.03 1.934-1.873 1.951-1.873.017 0 .393-.336.835-.746.442-.41.958-.831 1.146-.936.334-.186.334-.176 0 .396-.188.323-.962 1.26-1.72 2.084-1.372 1.491-3.558 3.978-4.007 4.558-.175.227.227.139 1.565-.342 3.42-1.229 3.791-1 .791.488-1.123.557-1.926 1.058-1.812 1.129.259.16 4.006.354 11.914.619 9.481.317 11.582.412 11.7.53.393.393-.693.514-6.112.68-3.225.098-7.434.272-9.354.386-1.92.115-4.43.259-5.578.32l-2.087.111.757.608c.417.334 1.036.723 1.376.865.58.242 1.047.824.662.824-.096 0-.61-.198-1.143-.44a17.096 17.096 0 0 0-1.935-.72l-.967-.278 1.242 1.435c.684.789 1.549 1.795 1.923 2.234.373.44 1.203 1.339 1.844 1.997 2.115 2.172 2.677 2.842 2.16 2.572-.252-.132-.867-.58-1.366-.994-.5-.415-1.116-.92-1.369-1.121-.253-.202-.796-.7-1.205-1.106a16.15 16.15 0 0 0-1.387-1.217 22.354 22.354 0 0 1-1.33-1.1c-1.847-1.669-2.057-1.689-1.513-.145.155.437.24.902.19 1.033-.05.131-.006.238.098.238.103 0 .144.071.09.159-.053.087.015.48.152.872.476 1.363.683 2.51.49 2.703-.124.124-.309-.104-.559-.687-.206-.48-.374-.962-.374-1.072 0-.11-.045-.153-.101-.098-.056.056.032.876.195 1.822 4.01 23.311 21.612 42.357 44.366 48.008 2.582.64 4.574 1.017 7.532 1.421 2.355.322 11.271.32 13.595-.004 8.269-1.15 14.119-2.997 21.112-6.662 2.109-1.105 3.499-1.469 1.792-.468-7.568 4.435-15.215 7.09-23.914 8.305-1.92.268-10.597.508-12.31.34z" transform="matrix(.97583 0 0 .97583 13.341 19.18)"/></g></g></svg>