<?xml version="1.0" encoding="UTF-8" standalone="no"?>
<!-- Created with Inkscape (http://www.inkscape.org/) -->

<svg
   xmlns:dc="http://purl.org/dc/elements/1.1/"
   xmlns:cc="http://creativecommons.org/ns#"
   xmlns:rdf="http://www.w3.org/1999/02/22-rdf-syntax-ns#"
   xmlns:svg="http://www.w3.org/2000/svg"
   xmlns="http://www.w3.org/2000/svg"
   xmlns:sodipodi="http://sodipodi.sourceforge.net/DTD/sodipodi-0.dtd"
   xmlns:inkscape="http://www.inkscape.org/namespaces/inkscape"
   width="210mm"
   height="297mm"
   viewBox="0 0 210 297"
   version="1.1"
   id="svg8"
   inkscape:version="0.92.4 (5da689c313, 2019-01-14)"
   sodipodi:docname="Wuespace_Logo_final_white.svg">
  <defs
     id="defs2" />
  <sodipodi:namedview
     id="base"
     pagecolor="#ffffff"
     bordercolor="#666666"
     borderopacity="1.0"
     inkscape:pageopacity="0.0"
     inkscape:pageshadow="2"
     inkscape:zoom="0.35"
     inkscape:cx="388.96121"
     inkscape:cy="621.0819"
     inkscape:document-units="mm"
     inkscape:current-layer="layer1"
     showgrid="false"
     inkscape:window-width="1920"
     inkscape:window-height="1046"
     inkscape:window-x="-11"
     inkscape:window-y="-11"
     inkscape:window-maximized="1" />
  <metadata
     id="metadata5">
    <rdf:RDF>
      <cc:Work
         rdf:about="">
        <dc:format>image/svg+xml</dc:format>
        <dc:type
           rdf:resource="http://purl.org/dc/dcmitype/StillImage" />
        <dc:title></dc:title>
      </cc:Work>
    </rdf:RDF>
  </metadata>
  <g
     inkscape:label="Ebene 1"
     inkscape:groupmode="layer"
     id="layer1">
    <g
       id="g859"
       transform="matrix(0.54841827,0,0,0.54841827,36.938407,68.135508)"
       style="opacity:1;fill:#ffffff">
      <path
         inkscape:connector-curvature="0"
         id="path826"
         d="m 174.6592,205.89147 c -0.14698,-0.0584 -0.40383,-0.23578 -0.57076,-0.39409 -0.65151,-0.61788 -0.60513,1.19869 -0.60513,-23.69871 0,-24.89745 -0.0463,-23.08163 0.60513,-23.69804 0.60918,-0.57637 0.45865,-0.56434 7.49459,-0.59943 5.50238,-0.0274 6.70124,-0.007 7.49744,0.13087 5.60935,0.96802 9.9922,5.33705 10.96815,10.93359 0.20642,1.18369 0.20308,3.2517 -0.008,4.45379 -0.48488,2.77201 -1.74515,5.19336 -3.73485,7.17573 -1.8639,1.85703 -3.89789,2.97852 -6.6281,3.65455 -0.67308,0.16667 -1.33624,0.18194 -6.59891,0.15197 l -5.85064,-0.0333 -0.0288,10.29988 -0.0288,10.29989 -0.29246,0.4975 c -0.4578,0.77876 -1.42911,1.14013 -2.21966,0.82582 z m 14.42065,-26.17351 c 3.24626,-0.87103 5.59403,-3.08179 6.5885,-6.20396 0.34956,-1.09748 0.47742,-3.14742 0.27043,-4.33597 -0.4705,-2.70183 -2.16791,-5.07415 -4.61289,-6.44704 -1.86871,-1.04929 -3.78094,-1.29695 -10.01223,-1.29672 h -4.08889 l -8e-5,9.32694 -1e-4,9.32693 5.47867,-0.0647 c 5.23735,-0.0618 5.51821,-0.0754 6.37659,-0.30564 z m 57.25508,26.11649 c -2.76581,-0.30477 -5.92223,-1.20999 -8.23122,-2.36061 -5.69521,-2.83805 -10.05489,-7.67616 -12.16657,-13.50167 -3.23401,-8.92177 -1.07545,-18.74424 5.59042,-25.43894 3.6017,-3.61726 8.0284,-5.9191 13.20141,-6.86459 1.10632,-0.20221 1.66477,-0.23491 4.01118,-0.23491 2.34641,0 2.90486,0.0327 4.01118,0.23491 4.09744,0.74891 7.39716,2.18913 10.68742,4.6647 2.55318,1.921 4.5815,4.2323 6.45804,7.35903 l 0.24058,0.40087 h -2.44677 -2.44678 l -0.52573,-0.72157 c -0.69051,-0.94772 -2.66151,-2.91439 -3.74026,-3.73202 -3.60713,-2.73403 -7.69889,-4.09833 -12.29157,-4.09833 -5.4404,0 -10.29328,2.01241 -14.1707,5.87633 -3.86192,3.84851 -5.87488,8.73429 -5.87127,14.25064 0.003,5.47787 2.02092,10.35374 5.87127,14.1907 3.87742,3.86393 8.7303,5.87633 14.1707,5.87633 4.58379,0 8.70749,-1.37281 12.2701,-4.08479 0.87095,-0.66299 2.65949,-2.37176 3.30712,-3.15962 l 0.3751,-0.45632 2.48338,0.0288 2.48338,0.0288 -0.63363,0.96209 c -2.71405,4.12101 -7.03466,7.58326 -11.5842,9.28277 -2.90983,1.08698 -4.98638,1.46905 -8.21976,1.51241 -1.32288,0.0178 -2.59765,0.011 -2.83282,-0.0148 z m -111.10597,-0.14247 c -0.19729,-0.0473 -0.5701,-0.29338 -0.82847,-0.54696 l -0.46978,-0.46105 v -0.88265 c 0,-0.83269 0.0186,-0.90382 0.32801,-1.25625 0.18041,-0.20547 0.5857,-0.49966 0.90067,-0.65377 l 0.57266,-0.28017 5.53999,0.0923 c 3.04699,0.0508 8.11359,0.0652 11.25908,0.0319 l 5.7191,-0.0603 0.85519,-0.28788 c 2.95128,-0.99349 5.15214,-3.50675 5.77869,-6.59893 0.2184,-1.07782 0.16226,-3.21763 -0.11081,-4.22384 -0.24857,-0.91595 -1.04011,-2.45411 -1.66384,-3.23327 -1.10273,-1.37753 -2.79583,-2.4695 -4.53854,-2.92715 -0.80993,-0.21268 -1.2229,-0.2286 -7.80362,-0.30077 l -6.94843,-0.0762 -1.04902,-0.28126 c -2.19544,-0.58862 -3.97566,-1.58236 -5.6174,-3.13566 -2.74065,-2.59299 -4.19535,-5.98017 -4.19535,-9.76856 0,-3.78838 1.4547,-7.17557 4.19535,-9.76856 1.63427,-1.54624 3.39309,-2.53048 5.6174,-3.14352 l 1.04902,-0.28912 11.84433,-0.0298 c 7.91868,-0.0199 11.98048,0.007 12.25514,0.0808 0.70555,0.18998 1.53053,1.37406 1.35244,1.94113 -0.0251,0.0798 -0.0743,0.27647 -0.10947,0.43708 -0.0794,0.36249 -0.62442,0.99514 -1.06552,1.23676 -0.30433,0.1667 -1.13916,0.18342 -10.16626,0.20356 -12.76175,0.0285 -13.75566,0.0966 -15.82292,1.08473 -2.16231,1.03355 -3.76144,2.93226 -4.60488,5.46761 -0.28565,0.85863 -0.30228,1.01159 -0.30228,2.77937 0,1.76778 0.0167,1.92074 0.30228,2.77937 1.05089,3.15895 3.24165,5.2773 6.31714,6.10837 0.82004,0.22159 1.14084,0.2341 7.80362,0.30427 6.59406,0.0694 6.99254,0.0847 7.81316,0.29877 5.8521,1.52665 9.77171,6.59571 9.77171,12.6373 0,5.78584 -3.63902,10.75003 -9.14454,12.47453 l -0.9574,0.29989 -11.75888,0.0169 c -6.46739,0.009 -11.92029,-0.0217 -12.11757,-0.069 z m 141.67906,-0.005 c -0.66765,-0.0974 -1.22259,-0.41879 -1.53285,-0.8876 l -0.28443,-0.4298 -0.0275,-22.55492 -0.0275,-22.55494 0.22749,-0.46993 c 0.13733,-0.28366 0.39935,-0.58367 0.66106,-0.75685 l 0.43357,-0.28692 13.31672,0.003 c 12.77004,0.002 13.33342,0.0112 13.72362,0.20213 0.2238,0.10953 0.53648,0.36902 0.69484,0.57666 0.24601,0.32251 0.28794,0.48114 0.28794,1.08899 0,0.60784 -0.0419,0.76647 -0.28794,1.08898 -0.15836,0.20764 -0.47104,0.46847 -0.69484,0.57964 -0.3908,0.1941 -0.88633,0.20324 -12.51321,0.23061 l -12.1063,0.0285 v 9.29843 c 0,5.11413 0.0361,9.30308 0.0802,9.30878 0.0441,0.006 4.72226,0.0193 10.39592,0.0303 11.41917,0.0221 10.64351,-0.0267 11.26225,0.7086 0.61074,0.72581 0.61074,1.62402 0,2.34983 -0.61889,0.7355 0.15726,0.68666 -11.26225,0.7088 -5.67366,0.011 -10.35183,0.0246 -10.39592,0.0302 -0.0441,0.006 -0.0802,4.06304 -0.0802,9.01647 v 9.00624 h 12.5339 12.5339 l 0.4975,0.29246 c 0.55842,0.32827 0.94563,0.97453 0.94563,1.57826 0,0.60374 -0.38721,1.25001 -0.94563,1.57827 l -0.4975,0.29247 -13.25547,0.002 c -7.2905,0.002 -13.44788,-0.0252 -13.68306,-0.0595 z m -87.95817,-0.15167 c -0.22437,-0.08 -0.50608,-0.23425 -0.62604,-0.34273 -0.3421,-0.30938 -0.62294,-0.94999 -0.62294,-1.42098 0,-0.47465 0.10629,-0.69148 2.91091,-5.93848 0.91136,-1.70504 2.60721,-4.87994 3.76853,-7.05533 1.16132,-2.1754 2.29274,-4.29199 2.51427,-4.70356 0.22153,-0.41155 1.73735,-3.24972 3.3685,-6.30703 3.91041,-7.32941 7.0363,-13.18354 7.53457,-14.11066 0.22119,-0.41156 1.13489,-2.11927 2.03045,-3.79491 0.89555,-1.67564 1.71944,-3.17478 1.83085,-3.33142 0.25469,-0.35808 1.01142,-0.73074 1.48386,-0.73074 0.19805,0 0.56838,0.10083 0.82295,0.22407 0.7632,0.36945 0.93321,0.78683 1.48271,3.64022 0.26439,1.37291 1.19777,6.15214 2.07418,10.62052 2.25231,11.48353 5.96628,30.49857 6.04839,30.96699 0.13052,0.74463 -0.38616,1.67712 -1.09287,1.97241 -0.42282,0.17666 -1.13991,0.18949 -1.45858,0.0261 -0.4028,-0.20653 -0.91998,-0.75997 -1.02971,-1.1019 -0.0579,-0.18063 -0.65995,-3.16657 -1.33776,-6.63544 -0.67781,-3.46887 -1.55541,-7.95462 -1.95021,-9.96833 l -0.71784,-3.66129 h -6.84847 -6.84848 l -2.12488,3.98199 c -2.75315,5.15938 -7.74548,14.50706 -8.40623,15.73989 -0.66208,1.23534 -0.98619,1.63379 -1.52987,1.88067 -0.52091,0.23654 -0.73016,0.24473 -1.27629,0.0499 z m 26.00013,-26.91728 c -0.16219,-0.83781 -0.75953,-3.90448 -1.32738,-6.8148 -0.56786,-2.91032 -1.08499,-5.5681 -1.14915,-5.90617 -0.0642,-0.33806 -0.14958,-0.61467 -0.18981,-0.61467 -0.0402,0 -0.23166,0.30066 -0.42541,0.66812 -0.19375,0.36747 -0.51939,0.9808 -0.72363,1.36296 -0.20424,0.38217 -0.55126,1.03158 -0.77116,1.44314 -0.2199,0.41156 -0.56761,1.06097 -0.77269,1.44314 -0.20508,0.38216 -1.39537,2.61902 -2.64509,4.97079 -1.24972,2.35178 -2.36134,4.4323 -2.47024,4.62339 l -0.198,0.34741 h 5.48373 5.48373 z M 190.4726,148.76935 c -4.86616,-0.79069 -9.13721,-3.39523 -12.04945,-7.34791 -1.67924,-2.27917 -2.6662,-4.41264 -3.40178,-7.35353 l -0.3075,-1.22934 0.003,-15.50033 c 0.004,-17.26133 -0.0613,-15.795 0.73566,-16.49476 0.885,-0.77703 2.19994,-0.46788 2.81931,0.66285 0.16621,0.30343 0.18187,1.00694 0.18469,8.29552 0.007,16.84102 0.0398,19.4078 0.27453,21.19602 0.54803,4.1744 1.82562,6.93225 4.42334,9.54838 2.80734,2.82724 6.07487,4.21086 9.9442,4.21086 3.7086,0 6.93967,-1.3009 9.63794,-3.88046 2.26448,-2.16486 3.76618,-4.88377 4.4691,-8.09153 0.28112,-1.28293 0.3737,-5.51134 0.4108,-18.76076 0.0379,-13.54347 -0.0228,-12.49276 0.76096,-13.18088 0.66631,-0.58502 1.59406,-0.58502 2.26037,0 0.79704,0.69981 0.73178,-0.7977 0.73043,16.762 l -8.4e-4,15.76758 -0.33094,1.23042 c -1.94499,7.23148 -7.35232,12.48809 -14.40977,14.0081 -1.38524,0.29836 -4.75713,0.38478 -6.15433,0.15777 z m -26.27119,-0.51061 c -0.25003,-0.13229 -1.66728,-0.94533 -3.14944,-1.80676 -7.98447,-4.64056 -11.45999,-6.61411 -11.57207,-6.5711 -0.0688,0.0264 -1.51494,0.85123 -3.21373,1.83299 -1.69879,0.98176 -4.21916,2.43638 -5.60083,3.23249 -2.64402,1.52349 -3.81017,2.20648 -4.85761,2.84503 -0.56211,0.34269 -0.71695,0.38718 -1.34734,0.38718 -0.79258,0 -1.07599,-0.1692 -1.45271,-0.86723 -0.18757,-0.34754 -0.19542,-1.27856 -0.1951,-23.13158 0,-21.10589 0.0134,-22.7937 0.17962,-23.10103 0.61054,-1.128961 1.93197,-1.439901 2.817,-0.66284 0.80612,0.70779 0.73498,-1.389831 0.7379,21.75951 0.002,11.42081 0.0343,20.76512 0.0731,20.76512 0.0388,0 1.57811,-0.87057 3.42077,-1.9346 1.84266,-1.06402 4.57481,-2.63944 6.07146,-3.50093 l 2.72118,-1.56635 h 0.75304 0.75304 l 2.56557,1.48615 c 1.41106,0.81739 3.11878,1.80772 3.79491,2.20073 4.45845,2.59156 6.3204,3.64006 6.38892,3.59771 0.0432,-0.0267 0.073,-9.15687 0.0663,-20.28932 -0.007,-11.13246 0.0289,-20.47322 0.079,-20.75724 0.11451,-0.64853 0.42151,-1.0854 0.95338,-1.35675 0.52803,-0.26938 1.17287,-0.26938 1.7009,0 0.53189,0.27135 0.83887,0.70824 0.95334,1.35675 0.0501,0.28402 0.0845,10.49809 0.0764,22.69793 -0.0135,20.31665 -0.0294,22.20849 -0.18963,22.50222 -0.55877,1.02469 -1.58247,1.3819 -2.52744,0.88192 z m 27.74842,-33.86765 c -0.22062,-0.11647 -0.53329,-0.41143 -0.69484,-0.65545 l -0.2937,-0.44371 -0.0303,-5.64876 c -0.0213,-3.95189 0.006,-5.78351 0.0904,-6.0973 0.15732,-0.58425 0.77487,-1.20116 1.36017,-1.35876 0.82207,-0.221371 1.71885,0.20573 2.0946,0.99757 0.153,0.32241 0.17312,1.04385 0.17312,6.20669 0,6.34532 0.0208,6.11408 -0.60512,6.70636 -0.58435,0.55288 -1.3892,0.66561 -2.09434,0.29336 z"
         style="fill:#ffffff;stroke-width:0.10689892" />
      <path
         inkscape:connector-curvature="0"
         id="path839"
         d="m -25.867551,338.19189 c -19.792336,-2.12899 -31.620064,-12.57279 -35.335348,-31.20096 -1.045802,-5.24355 -1.274106,-14.41178 -0.520865,-20.91654 1.298699,-11.21524 4.18616,-22.58972 8.946529,-35.24279 6.604675,-17.55518 18.286305,-40.62835 29.248549,-57.7708 1.145569,-1.79143 2.658576,-4.18282 3.362224,-5.31423 3.998692,-6.42955 18.8778728,-27.9641 20.25431634,-29.31397 0.4696858,-0.46056 0.4793461,-0.42492 0.092382,0.34285 -0.2376168,0.47136 -1.39855734,2.56676 -2.57985674,4.65634 -1.1812994,2.08951 -3.2938266,6.17805 -4.6945136,9.08561 -1.400679,2.90751 -4.008875,7.52355 -5.795989,10.2578 -1.787121,2.73424 -4.137097,6.35995 -5.222162,8.05705 -1.085072,1.69715 -2.748105,4.29814 -3.695634,5.78002 -0.947536,1.48189 -3.150389,5.1847 -4.895237,8.22849 -1.744839,3.04378 -3.678192,6.38268 -4.296341,7.41983 -2.686879,4.50811 -10.194986,19.6813 -13.402612,27.08542 -8.358808,19.29465 -12.496098,33.30861 -14.050938,47.59367 -0.526642,4.8386 -0.236645,15.96487 0.510725,19.59712 2.398898,11.65805 8.284673,19.71278 17.801208,24.36095 6.001698,2.93142 12.162105,4.11456 21.478721,4.12509 13.739795,0.0162 34.856216,-5.38387 52.177548,-13.34185 1.263688,-0.58059 2.826175,-1.27644 3.472193,-1.54635 4.337739,-1.81243 11.543728,-5.36688 20.458473,-10.09139 3.32936,-1.76448 5.039338,-2.7438 14.571274,-8.34538 1.885693,-1.1082 5.125655,-2.72615 7.199918,-3.59542 2.074264,-0.86934 6.906108,-3.19772 10.737435,-5.17412 3.83132,-1.9764 7.037313,-3.52222 7.124421,-3.43507 0.08714,0.087 -0.887635,0.8309 -2.166093,1.65282 -1.278464,0.82199 -5.178732,3.35899 -8.667262,5.63786 -7.47317,4.8818 -22.517262,13.76121 -29.313966,17.30189 -2.639977,1.37526 -6.188511,3.23163 -7.885631,4.12532 -3.374345,1.77684 -15.79459,7.34078 -21.459711,9.61339 -13.274523,5.32519 -27.75036596,9.097 -39.347385,10.2524 -3.344443,0.33313 -11.462274,0.39955 -14.106378,0.115 z M 249.88638,140.4328 c 0.0827,-0.18843 1.61741,-2.88855 3.41018,-5.99994 1.79277,-3.11138 4.81738,-8.74276 6.72144,-12.51414 1.90399,-3.77139 5.00447,-9.24846 6.88989,-12.1713 1.88543,-2.92285 5.88158,-9.55703 8.8804,-14.742703 26.66054,-46.10245 36.68876,-83.244807 28.74444,-106.46257 -2.97613,-8.697782 -9.68461,-15.731367 -18.32489,-19.212978 -16.90467,-6.811663 -44.89193,-2.214562 -76.36366,12.543324 -0.75428,0.353651 -2.37427,1.074829 -3.59996,1.602551 -1.2257,0.527507 -5.77708,2.793687 -10.11418,5.035573 -6.96098,3.5981827 -11.72702,6.2845831 -22.44147,12.6492407 -2.71348,1.6118432 -9.17722,5.7930338 -19.21521,12.4296473 -2.35713,1.55839 -6.44565,3.906804 -9.08562,5.218661 -5.08952,2.529123 -7.45356,3.785966 -10.37259,5.514433 -0.99068,0.586627 -2.30209,1.310449 -2.91425,1.608548 l -1.11301,0.541973 1.19999,-1.043299 c 0.65999,-0.573776 1.81616,-1.469731 2.56924,-1.990923 0.75308,-0.521031 3.71852,-2.644774 6.58982,-4.71906 9.50815,-6.868733 9.34223,-6.756265 25.29771,-17.1481235 1.50855,-0.98250782 5.05709,-3.1419963 7.88563,-4.7988695 2.82854,-1.656873 6.82676,-4.0018826 8.88491,-5.211153 3.79165,-2.227797 21.16733,-11.172378 23.68616,-12.193055 1.48878,-0.603317 4.63322,-1.997297 7.88562,-3.495869 9.37647,-4.320238 25.83922,-9.552016 35.48534,-11.276976 11.59028,-2.072671 22.40474,-2.204953 30.35629,-0.371469 15.93816,3.675333 25.7518,14.093616 28.83209,30.6084571 0.84886,4.55114958 1.01188,15.2827839 0.31801,20.9296099 -2.77333,22.567147 -12.6636,48.404956 -30.46368,79.585025 -2.63744,4.619935 -5.68684,9.788495 -6.77641,11.485595 -1.08957,1.69714 -3.48884,5.47706 -5.33178,8.3999 -4.06099,6.44068 -18.23596,26.82863 -17.5204,25.19972 z"
         style="fill:#ffffff;stroke-width:0.34285343" />
      <g
         transform="matrix(1.7793491,0,0,1.7793491,-43.027753,-89.268215)"
         inkscape:label="Ebene 1"
         id="layer1-9"
         style="fill:#ffffff">
        <path
           style="fill:#ffffff;stroke-width:0.18371743"
           d="m 90.121791,196.14104 c -9.002726,-0.88215 -15.845322,-2.77542 -22.964683,-6.35403 -3.859506,-1.94004 -5.934467,-3.23866 -9.665641,-6.04932 -7.642623,-5.75714 -14.385383,-14.01835 -18.376144,-22.51441 -0.999647,-2.12818 -2.358875,-5.50974 -2.753897,-6.8513 -0.218181,-0.74097 -0.252253,-0.77518 -0.366044,-0.36743 -0.06901,0.24728 -0.133709,1.38627 -0.143781,2.5311 -0.01007,1.14483 -0.139311,3.0463 -0.2872,4.2255 -0.316802,2.52606 -0.645847,8.49917 -0.51534,9.3549 0.05008,0.3284 0.01071,0.59709 -0.08748,0.59709 -0.27298,0 -0.466491,-3.46071 -0.672874,-12.0335 -0.171923,-7.1413 -0.312549,-9.8109 -0.822606,-15.61598 l -0.112995,-1.28602 -0.258737,0.91859 c -0.379446,1.34714 -1.0801,2.6639 -1.41747,2.6639 -0.204255,0 -0.253833,-0.0967 -0.164807,-0.3215 0.128016,-0.32324 0.183985,-0.55968 0.389571,-1.64576 0.06136,-0.32416 0.21437,-0.88842 0.34002,-1.25392 0.125652,-0.36549 0.191241,-0.85921 0.145754,-1.09716 -0.07392,-0.38671 -0.34268,-0.17565 -2.532421,1.98879 -2.703115,2.67188 -7.686717,7.38748 -8.869185,8.39223 -0.41621,0.35365 -0.821399,0.60167 -0.900421,0.55115 -0.265305,-0.16962 -0.20007,-0.25801 2.428368,-3.2902 0.505223,-0.58283 1.05869,-1.23399 1.229926,-1.44702 0.571638,-0.71115 3.32908,-3.78992 4.560259,-5.09166 3.059127,-3.23447 3.541262,-3.77373 3.452941,-3.86205 -0.05187,-0.0519 -0.912704,0.23237 -1.912959,0.63166 -3.176371,1.26797 -4.29883,1.65685 -4.29883,1.48935 0,-0.21767 0.897133,-0.83941 1.467098,-1.01674 0.25116,-0.0781 1.34963,-0.6458 2.441046,-1.26145 1.738268,-0.98052 1.928557,-1.13429 1.534206,-1.23976 -0.247604,-0.0662 -2.958196,-0.17532 -6.023536,-0.24245 -3.065342,-0.0671 -6.509289,-0.17953 -7.653218,-0.24978 -1.143928,-0.0703 -2.260011,-0.0605 -2.480184,0.0216 -0.220173,0.0821 -1.521074,0.0615 -2.890891,-0.0459 -1.369818,-0.10739 -3.0439428,-0.19526 -3.7202778,-0.19526 -1.15627,0 -1.625447,-0.226 -0.908196,-0.43746 0.329498,-0.0971 2.8576548,-0.4361 3.3528428,-0.44952 2.232583,-0.0605 5.775462,-0.24439 8.726576,-0.45293 2.020892,-0.1428 3.922368,-0.25493 4.225501,-0.24918 0.645572,0.0123 5.371971,-0.39194 6.404643,-0.54772 l 0.709403,-0.10701 -0.801261,-0.4578 c -1.252634,-0.71569 -3.488563,-1.92564 -4.234283,-2.29135 -0.372494,-0.18267 -0.72426,-0.40817 -0.781703,-0.50111 -0.154629,-0.2502 1.940253,0.27727 3.189537,0.80308 0.597001,0.25128 1.450531,0.53868 1.896735,0.63867 0.446202,0.1 0.970013,0.24081 1.164028,0.31291 0.194013,0.0721 -0.184623,-0.44299 -0.841413,-1.14463 -0.65679,-0.70165 -1.523995,-1.68791 -1.927122,-2.19169 -0.403127,-0.50378 -1.635238,-1.86671 -2.738023,-3.02872 -1.102784,-1.16201 -2.436424,-2.69146 -2.963642,-3.39877 -0.527217,-0.70731 -1.134578,-1.44351 -1.349689,-1.636 -0.462708,-0.41405 -0.501585,-0.66047 -0.104199,-0.66047 0.157801,0 1.08787,0.79694 2.066821,1.77097 0.978949,0.97403 2.358618,2.30747 3.06593,2.9632 0.707312,0.65572 1.806045,1.68352 2.44163,2.284 0.635585,0.60047 1.701615,1.60253 2.368953,2.22679 l 1.213345,1.13499 -0.111143,-1.01042 c -0.14666,-1.3333 -0.254677,-1.96727 -0.366006,-2.14816 -0.05019,-0.0816 -0.146235,-0.58232 -0.213426,-1.1128 -0.101596,-0.80212 -0.0741,-0.96452 0.163288,-0.96452 0.202471,0 0.456677,0.55941 0.874443,1.92432 0.323945,1.05837 0.62154,1.89176 0.661322,1.85198 0.25791,-0.25791 1.206779,-9.8519 1.427352,-14.43191 0.06083,-1.26306 0.147801,-2.41192 0.193269,-2.55303 0.04547,-0.14111 0.13184,-2.12525 0.191932,-4.40922 0.103122,-3.91944 0.258174,-5.13436 0.502981,-3.94117 0.05906,0.28786 0.194026,1.97016 0.299924,3.73844 0.105899,1.76828 0.229706,3.42174 0.275128,3.67435 0.04542,0.25261 0.09121,0.91399 0.101749,1.46974 0.0426,2.24592 0.144073,2.24384 1.026989,-0.0211 1.939661,-4.97589 4.539303,-9.61387 7.903669,-14.100804 10.230501,-13.644054 24.428576,-21.975073 41.57949,-24.397643 3.25381,-0.459601 12.15678,-0.456545 15.432257,0.0053 6.32082,0.891233 11.58668,2.355608 17.05365,4.742427 3.63248,1.585898 9.52137,4.953336 9.29704,5.31631 -0.0575,0.09298 -0.20211,0.111349 -0.32144,0.04081 -0.11932,-0.07054 -0.84644,-0.520126 -1.61583,-0.999079 -6.12569,-3.813324 -14.30084,-6.641444 -22.59689,-7.817188 -2.86568,-0.406135 -11.623047,-0.466997 -14.309307,-0.09945 -6.39168,0.874545 -11.614278,2.283644 -16.626428,4.485942 -16.202491,7.119251 -28.489183,20.948695 -33.587549,37.804905 -1.091351,3.60822 -2.324893,10.02311 -2.328211,12.1076 -9.18e-4,0.61085 0.01277,0.59963 0.596086,-0.48697 1.337276,-2.49105 1.451627,-2.66415 1.637297,-2.47848 0.122479,0.12248 0.06174,0.42282 -0.182222,0.90102 -0.201268,0.39452 -0.662949,1.57059 -1.025959,2.61349 l -0.660017,1.89618 0.59771,-0.53453 c 0.328738,-0.29399 1.462113,-1.37755 2.518609,-2.40791 1.056497,-1.03036 1.934782,-1.87338 1.951744,-1.87338 0.01696,0 0.39265,-0.3355 0.83486,-0.74555 0.44221,-0.41006 0.958042,-0.83133 1.146294,-0.93617 0.333892,-0.18595 0.333892,-0.17624 0,0.39614 -0.188252,0.32272 -0.962565,1.2607 -1.720697,2.0844 -1.372057,1.49073 -3.558157,3.97774 -4.006446,4.55791 -0.174941,0.22641 0.226245,0.1387 1.564347,-0.342 3.421101,-1.22899 3.79169,-1.00076 0.791651,0.48756 -1.123169,0.5572 -1.926723,1.05772 -1.811966,1.12864 0.258481,0.15975 4.006171,0.35456 11.913955,0.61929 9.480971,0.31739 11.58209,0.41256 11.699463,0.52994 0.393097,0.3931 -0.693132,0.51384 -6.111835,0.67939 -3.224763,0.0985 -7.433988,0.27282 -9.353835,0.38733 -1.919847,0.11451 -4.429888,0.2583 -5.577869,0.31953 l -2.087237,0.11132 0.757145,0.60723 c 0.416429,0.33398 1.035636,0.7236 1.376014,0.86582 0.57941,0.24209 1.046593,0.82342 0.66174,0.82342 -0.09563,0 -0.609746,-0.19816 -1.142469,-0.44036 -0.532722,-0.24219 -1.403781,-0.56566 -1.935686,-0.7188 l -0.967099,-0.27845 1.242676,1.4347 c 0.683471,0.78909 1.548495,1.79461 1.922274,2.23448 0.373778,0.43987 1.203668,1.33819 1.844199,1.99627 2.114834,2.17276 2.677553,2.84262 2.160996,2.57246 -0.252611,-0.13212 -0.867837,-0.57948 -1.36717,-0.99414 -0.499331,-0.41466 -1.115201,-0.91928 -1.368597,-1.12137 -0.253398,-0.20209 -0.795592,-0.69951 -1.204876,-1.10538 -0.409284,-0.40587 -1.033506,-0.95371 -1.387162,-1.21742 -0.353656,-0.26371 -0.951768,-0.75836 -1.32914,-1.09922 -1.848096,-1.66932 -2.05797,-1.68955 -1.51331,-0.14582 0.154409,0.43765 0.239678,0.90274 0.189483,1.03355 -0.05019,0.1308 -0.0063,0.23783 0.09753,0.23783 0.103837,0 0.144749,0.0713 0.09092,0.15837 -0.05383,0.0871 0.01433,0.4798 0.151475,0.87265 0.475863,1.36314 0.683417,2.50926 0.489522,2.70316 -0.123469,0.12347 -0.308087,-0.10395 -0.55835,-0.68779 -0.205639,-0.47974 -0.373889,-0.96185 -0.373889,-1.07135 0,-0.10951 -0.04554,-0.15357 -0.101203,-0.0979 -0.05566,0.0557 0.03202,0.8755 0.194855,1.82187 4.010867,23.311 21.612287,42.35715 44.365964,48.00757 2.581975,0.64117 4.574415,1.01724 7.532415,1.42171 2.35523,0.32206 11.270925,0.31923 13.595095,-0.004 8.26872,-1.15105 14.11835,-2.99706 21.11146,-6.66229 2.10875,-1.10523 3.49927,-1.46868 1.79268,-0.46856 -7.56802,4.43516 -15.21557,7.09118 -23.91459,8.30563 -1.92065,0.26813 -10.597175,0.50794 -12.309065,0.34021 z"
           id="path826-8"
           inkscape:connector-curvature="0" />
      </g>
    </g>
  </g>
</svg>
